# Blender 3.4.0
# www.blender.org
mtllib capacitor_etx_1.mtl
o capacitor_etx_1
v -0.013576 0.020000 0.013576
v -0.013576 0.026000 0.013576
v -0.019200 0.020000 0.000000
v -0.013576 0.020000 -0.013576
v -0.019200 0.026000 0.000000
v -0.013576 0.026000 -0.013576
v 0.000000 0.020000 0.019200
v 0.013576 0.020000 0.013576
v 0.000000 0.026000 0.019200
v 0.013576 0.026000 0.013576
v 0.000000 0.020000 -0.019200
v 0.019200 0.020000 0.000000
v 0.013576 0.020000 -0.013576
v 0.019200 0.026000 0.000000
v 0.000000 0.026000 -0.019200
v 0.013576 0.026000 -0.013576
v -0.012000 -0.004000 0.005600
v -0.012000 0.020000 0.005600
v -0.012000 -0.004000 -0.005600
v -0.012000 0.020000 -0.005600
v -0.009600 -0.004000 0.005600
v -0.009600 0.020000 0.005600
v -0.009600 -0.004000 -0.005600
v -0.009600 0.020000 -0.005600
v -0.012000 -0.006400 0.004400
v -0.012000 -0.006400 -0.004400
v -0.009600 -0.006400 0.004400
v -0.009600 -0.006400 -0.004400
v 0.009600 -0.004000 0.005600
v 0.009600 0.020000 0.005600
v 0.009600 -0.004000 -0.005600
v 0.009600 0.020000 -0.005600
v 0.012000 -0.004000 0.005600
v 0.012000 0.020000 0.005600
v 0.012000 -0.004000 -0.005600
v 0.012000 0.020000 -0.005600
v 0.009600 -0.006400 0.004400
v 0.009600 -0.006400 -0.004400
v 0.012000 -0.006400 0.004400
v 0.012000 -0.006400 -0.004400
v -0.018328 0.026000 0.018328
v -0.018328 0.100000 0.018328
v -0.025920 0.026000 -0.000000
v -0.018328 0.026000 -0.018328
v -0.025920 0.100000 -0.000000
v -0.018328 0.100000 -0.018328
v 0.000000 0.026000 0.025920
v 0.018328 0.026000 0.018328
v 0.000000 0.100000 0.025920
v 0.018328 0.100000 0.018328
v 0.000000 0.026000 -0.025920
v 0.025920 0.026000 -0.000000
v 0.018328 0.026000 -0.018328
v 0.025920 0.100000 -0.000000
v 0.000000 0.100000 -0.025920
v 0.018328 0.100000 -0.018328
v -0.018328 0.052000 0.018328
v -0.016495 0.046000 0.016495
v -0.018328 0.040000 0.018328
v -0.018328 0.040000 -0.018328
v -0.016495 0.046000 -0.016496
v -0.018328 0.052000 -0.018328
v -0.025920 0.040000 -0.000000
v -0.023328 0.046000 -0.000000
v -0.025920 0.052000 -0.000000
v 0.025920 0.052000 -0.000000
v 0.023328 0.046000 -0.000000
v 0.025920 0.040000 -0.000000
v 0.018328 0.040000 -0.018328
v 0.016495 0.046000 -0.016496
v 0.018328 0.052000 -0.018328
v 0.000000 0.040000 -0.025920
v 0.000000 0.046000 -0.023328
v 0.000000 0.052000 -0.025920
v 0.000000 0.052000 0.025920
v 0.000000 0.046000 0.023328
v 0.000000 0.040000 0.025920
v 0.018328 0.040000 0.018328
v 0.016495 0.046000 0.016495
v 0.018328 0.052000 0.018328
vn -0.3827 -0.0000 0.9239
vn -0.9239 -0.0000 0.3827
vn -0.3827 -0.0000 -0.9239
vn -0.9239 -0.0000 -0.3827
vn 0.9239 -0.0000 -0.3827
vn 0.3827 -0.0000 -0.9239
vn 0.3827 -0.0000 0.9239
vn 0.9239 -0.0000 0.3827
vn -0.0000 -1.0000 -0.0000
vn -1.0000 -0.0000 -0.0000
vn -0.0000 -0.0000 -1.0000
vn 1.0000 -0.0000 -0.0000
vn -0.0000 -0.0000 1.0000
vn -0.0000 -0.4472 0.8944
vn -0.0000 -0.4472 -0.8944
vn -0.0000 1.0000 -0.0000
vn -0.7071 -0.0000 0.7071
vn -0.7071 -0.0000 -0.7071
vn 0.7071 -0.0000 -0.7071
vn 0.7071 -0.0000 0.7071
vn 0.6491 -0.3966 0.6491
vn 0.9180 -0.3966 -0.0000
vn 0.6491 0.3966 0.6491
vn 0.9180 0.3966 -0.0000
vn -0.0000 -0.3966 0.9180
vn -0.0000 0.3966 0.9180
vn 0.6491 -0.3966 -0.6491
vn -0.0000 -0.3966 -0.9180
vn 0.6491 0.3966 -0.6491
vn -0.0000 0.3966 -0.9180
vn -0.6491 -0.3966 -0.6491
vn -0.9180 -0.3966 -0.0000
vn -0.6491 0.3966 -0.6491
vn -0.9180 0.3966 -0.0000
vn -0.6491 0.3966 0.6491
vn -0.6491 -0.3966 0.6491
vt 0.813794 0.952769
vt 0.813794 0.951016
vt 0.823569 0.953667
vt 0.810932 0.952769
vt 0.810932 0.951016
vt 0.813794 0.944006
vt 0.816656 0.977305
vt 0.828526 0.948710
vt 0.816656 0.968542
vt 0.816656 0.970294
vt 0.835536 0.948710
vt 0.810932 0.944006
vt 0.813794 0.977305
vt 0.813794 0.968542
vt 0.813794 0.970294
vt 0.813794 0.959779
vt 0.813794 0.961532
vt 0.823569 0.960677
vt 0.813794 0.968542
vt 0.813794 0.970294
vt 0.828526 0.965634
vt 0.810932 0.959779
vt 0.810932 0.961532
vt 0.810932 0.968542
vt 0.810932 0.970294
vt 0.816656 0.961532
vt 0.816656 0.959779
vt 0.840493 0.953667
vt 0.816656 0.944006
vt 0.813794 0.977305
vt 0.835536 0.965634
vt 0.816656 0.951016
vt 0.816656 0.952769
vt 0.840493 0.960677
vt 0.813794 0.944006
vt 0.810932 0.977305
vt 0.813794 0.961532
vt 0.813794 0.959779
vt 0.813794 0.951016
vt 0.813794 0.952769
vt 0.655205 0.257381
vt 0.655205 0.256954
vt 0.645092 0.257516
vt 0.645092 0.246067
vt 0.655205 0.245932
vt 0.656350 0.247212
vt 0.656350 0.247638
vt 0.650435 0.257516
vt 0.650435 0.246067
vt 0.656350 0.258661
vt 0.654061 0.257381
vt 0.654061 0.256954
vt 0.648527 0.247212
vt 0.648527 0.258661
vt 0.654061 0.245932
vt 0.655205 0.247212
vt 0.655205 0.247638
vt 0.653870 0.247212
vt 0.655205 0.258661
vt 0.653870 0.258661
vt 0.655205 0.258234
vt 0.652916 0.272209
vt 0.645665 0.258661
vt 0.652915 0.268011
vt 0.656350 0.246358
vt 0.649863 0.258661
vt 0.654061 0.258234
vt 0.654061 0.272209
vt 0.649099 0.246067
vt 0.654060 0.268011
vt 0.655205 0.246358
vt 0.653297 0.246067
vt 0.657495 0.257381
vt 0.657495 0.256954
vt 0.645092 0.270110
vt 0.645092 0.258661
vt 0.657495 0.245932
vt 0.652916 0.257381
vt 0.652916 0.256954
vt 0.650435 0.270110
vt 0.650435 0.258661
vt 0.652916 0.245932
vt 0.656350 0.257381
vt 0.656350 0.256954
vt 0.648527 0.259806
vt 0.648527 0.271255
vt 0.656350 0.245932
vt 0.654061 0.257381
vt 0.654061 0.256954
vt 0.653870 0.259806
vt 0.654061 0.245932
vt 0.653870 0.271255
vt 0.657495 0.258234
vt 0.652916 0.261905
vt 0.645665 0.271255
vt 0.652915 0.257707
vt 0.652916 0.258234
vt 0.649863 0.271255
vt 0.656350 0.258234
vt 0.654061 0.261905
vt 0.649099 0.258661
vt 0.654060 0.257707
vt 0.654061 0.258234
vt 0.653297 0.258661
vt 0.438707 0.329390
vt 0.493869 0.281354
vt 0.445953 0.322007
vt 0.493936 0.316548
vt 0.446049 0.322048
vt 0.503130 0.281264
vt 0.512442 0.281252
vt 0.456432 0.322048
vt 0.438611 0.329348
vt 0.503218 0.316506
vt 0.438611 0.339731
vt 0.512477 0.316450
vt 0.521576 0.281660
vt 0.438707 0.339773
vt 0.484635 0.281513
vt 0.512428 0.281493
vt 0.446049 0.347114
vt 0.456336 0.322007
vt 0.484615 0.316561
vt 0.521712 0.316370
vt 0.463677 0.329348
vt 0.512490 0.316463
vt 0.521725 0.281444
vt 0.484680 0.281106
vt 0.463773 0.329390
vt 0.503276 0.281371
vt 0.456432 0.347114
vt 0.494053 0.281230
vt 0.463773 0.339773
vt 0.463677 0.339731
vt 0.503251 0.316548
vt 0.445953 0.347073
vt 0.484629 0.316707
vt 0.521725 0.316385
vt 0.456336 0.347073
vt 0.493971 0.316631
vt 0.493980 0.294127
vt 0.493991 0.290998
vt 0.493950 0.287863
vt 0.512358 0.287798
vt 0.512309 0.290946
vt 0.512360 0.294089
vt 0.503153 0.287798
vt 0.503139 0.290960
vt 0.503170 0.294117
vt 0.503167 0.294154
vt 0.503201 0.291005
vt 0.503201 0.287859
vt 0.493997 0.287788
vt 0.494018 0.290958
vt 0.493961 0.294120
vt 0.484646 0.287798
vt 0.521590 0.287995
vt 0.485158 0.290913
vt 0.521042 0.290997
vt 0.484629 0.294027
vt 0.521567 0.294008
vt 0.521486 0.294058
vt 0.484734 0.294052
vt 0.520942 0.291076
vt 0.485273 0.291031
vt 0.521458 0.288116
vt 0.484747 0.288029
vt 0.512327 0.287938
vt 0.512298 0.291041
vt 0.512326 0.294151
s 1
usemtl electronics_etx_part_1
f 7/16/1 9/22/1 2/4/1 1/1/1
f 1/2/2 2/5/2 5/12/2 3/6/2
f 15/37/3 11/26/3 4/9/3 6/14/3
f 6/15/4 4/10/4 3/7/4 5/13/4
f 14/35/5 12/29/5 13/32/5 16/39/5
f 16/40/6 13/33/6 11/27/6 15/38/6
f 9/23/7 7/17/7 8/19/7 10/24/7
f 10/25/8 8/20/8 12/30/8 14/36/8
f 3/8/9 4/11/9 11/28/9 13/34/9 12/31/9 8/21/9 7/18/9 1/3/9
f 17/43/10 18/44/10 20/49/10 19/48/10
f 19/46/11 20/50/11 24/59/11 23/56/11
f 23/58/12 24/60/12 22/54/12 21/53/12
f 21/51/13 22/55/13 18/45/13 17/41/13
f 21/52/14 17/42/14 25/61/14 27/67/14
f 26/64/9 28/70/9 27/68/9 25/62/9
f 19/47/15 23/57/15 28/71/15 26/65/15
f 17/43/10 19/48/10 26/66/10 25/63/10
f 23/58/12 21/53/12 27/69/12 28/72/12
f 29/75/10 30/76/10 32/81/10 31/80/10
f 31/78/11 32/82/11 36/91/11 35/88/11
f 35/90/12 36/92/12 34/86/12 33/85/12
f 33/83/13 34/87/13 30/77/13 29/73/13
f 33/84/14 29/74/14 37/93/14 39/99/14
f 38/96/9 40/102/9 39/100/9 37/94/9
f 31/79/15 35/89/15 40/103/15 38/97/15
f 29/75/10 31/80/10 38/98/10 37/95/10
f 35/90/12 33/85/12 39/101/12 40/104/12
f 54/134/16 56/139/16 55/136/16 46/115/16 45/113/16 42/107/16 49/122/16 50/125/16
f 75/163/13 49/123/13 42/108/17 57/141/17
f 57/141/17 42/108/17 45/114/10 65/149/10
f 72/157/11 51/127/11 44/111/18 60/144/18
f 60/144/18 44/111/18 43/110/10 63/147/10
f 68/152/12 52/130/12 53/132/19 69/153/19
f 69/153/19 53/132/19 51/128/11 72/156/11
f 77/166/13 47/117/13 48/120/20 78/168/20
f 78/168/20 48/120/20 52/130/12 68/152/12
f 43/109/9 44/112/9 51/129/9 53/133/9 52/131/9 48/121/9 47/118/9 41/105/9
f 50/126/20 80/170/20 66/150/12 54/135/12
f 80/170/21 79/169/21 67/151/22 66/150/22
f 79/169/23 78/168/23 68/152/24 67/151/24
f 49/124/13 75/162/13 80/170/20 50/126/20
f 75/162/25 76/164/25 79/169/21 80/170/21
f 76/164/26 77/166/26 78/168/23 79/169/23
f 56/140/19 71/155/19 74/160/11 55/137/11
f 71/155/27 70/154/27 73/158/28 74/160/28
f 70/154/29 69/153/29 72/156/30 73/158/30
f 54/135/12 66/150/12 71/155/19 56/140/19
f 66/150/22 67/151/22 70/154/27 71/155/27
f 67/151/24 68/152/24 69/153/29 70/154/29
f 46/116/18 62/146/18 65/149/10 45/114/10
f 62/146/31 61/145/31 64/148/32 65/149/32
f 61/145/33 60/144/33 63/147/34 64/148/34
f 55/138/11 74/161/11 62/146/18 46/116/18
f 74/161/28 73/159/28 61/145/31 62/146/31
f 73/159/30 72/157/30 60/144/33 61/145/33
f 41/106/17 59/143/17 63/147/10 43/110/10
f 59/143/35 58/142/35 64/148/34 63/147/34
f 58/142/36 57/141/36 65/149/32 64/148/32
f 47/119/13 77/167/13 59/143/17 41/106/17
f 77/167/26 76/165/26 58/142/35 59/143/35
f 76/165/25 75/163/25 57/141/36 58/142/36
