# Blender 3.4.0
# www.blender.org
mtllib capacitor_etx_5.mtl
o capacitor_etx_5
v -0.015274 0.014726 -0.075000
v -0.015274 0.014726 0.075000
v -0.021600 0.030000 -0.075000
v -0.015274 0.045273 -0.075000
v -0.021600 0.030000 0.075000
v -0.015274 0.045273 0.075000
v 0.000000 0.008400 -0.075000
v 0.015274 0.014726 -0.075000
v 0.000000 0.008400 0.075000
v 0.015274 0.014726 0.075000
v 0.000000 0.051600 -0.075000
v 0.021600 0.030000 -0.075000
v 0.015274 0.045273 -0.075000
v 0.021600 0.030000 0.075000
v 0.000000 0.051600 0.075000
v 0.015274 0.045273 0.075000
v -0.012728 0.017273 -0.079500
v -0.012728 0.017273 -0.075000
v -0.018000 0.030001 -0.079500
v -0.012728 0.042728 -0.079500
v -0.018000 0.030001 -0.075000
v -0.012728 0.042728 -0.075000
v 0.000000 0.012001 -0.079500
v 0.012728 0.017273 -0.079500
v 0.000000 0.012001 -0.075000
v 0.012728 0.017273 -0.075000
v 0.000000 0.048001 -0.079500
v 0.018000 0.030001 -0.079500
v 0.012728 0.042728 -0.079500
v 0.018000 0.030001 -0.075000
v 0.000000 0.048001 -0.075000
v 0.012728 0.042728 -0.075000
v -0.003279 0.000901 -0.088200
v -0.003279 0.025801 -0.079500
v -0.003279 0.000901 -0.096600
v -0.003279 0.034201 -0.079500
v 0.003357 0.000901 -0.088200
v 0.003357 0.025801 -0.079500
v 0.003357 0.000901 -0.096600
v 0.003357 0.034201 -0.079500
v -0.003279 -0.000899 -0.089100
v -0.003279 -0.000899 -0.095700
v 0.003357 -0.000899 -0.089100
v 0.003357 -0.000899 -0.095700
v -0.003279 0.025801 -0.088500
v -0.003279 0.034201 -0.096600
v 0.003357 0.034201 -0.096600
v 0.003357 0.025801 -0.088500
v 0.003288 0.000901 0.088200
v 0.003288 0.025800 0.079500
v 0.003288 0.000901 0.096600
v 0.003288 0.034201 0.079500
v -0.003348 0.000901 0.088200
v -0.003348 0.025800 0.079500
v -0.003348 0.000901 0.096600
v -0.003348 0.034201 0.079500
v 0.003288 -0.000899 0.089100
v 0.003288 -0.000899 0.095700
v -0.003348 -0.000899 0.089100
v -0.003348 -0.000899 0.095700
v 0.003288 0.025800 0.088500
v 0.003288 0.034200 0.096600
v -0.003348 0.034200 0.096600
v -0.003348 0.025800 0.088500
v 0.012728 0.017273 0.079500
v 0.012728 0.017273 0.075000
v 0.018000 0.030000 0.079500
v 0.012728 0.042728 0.079500
v 0.018000 0.030000 0.075000
v 0.012728 0.042728 0.075000
v -0.000000 0.012000 0.079500
v -0.012728 0.017273 0.079500
v -0.000000 0.012000 0.075000
v -0.012728 0.017273 0.075000
v -0.000000 0.048000 0.079500
v -0.018000 0.030000 0.079500
v -0.012728 0.042728 0.079500
v -0.018000 0.030000 0.075000
v -0.000000 0.048000 0.075000
v -0.012728 0.042728 0.075000
vn -0.0000 -0.0000 1.0000
vn -0.0000 -1.0000 -0.0000
vn -0.7071 -0.7071 -0.0000
vn -1.0000 -0.0000 -0.0000
vn -0.0000 1.0000 -0.0000
vn -0.7071 0.7071 -0.0000
vn 1.0000 -0.0000 -0.0000
vn 0.7071 0.7071 -0.0000
vn 0.7071 -0.7071 -0.0000
vn -0.0000 -0.0000 -1.0000
vn -0.3827 -0.9239 -0.0000
vn -0.9239 -0.3827 -0.0000
vn -0.3827 0.9239 -0.0000
vn -0.9239 0.3827 -0.0000
vn 0.9239 0.3827 -0.0000
vn 0.3827 0.9239 -0.0000
vn 0.3827 -0.9239 -0.0000
vn 0.9239 -0.3827 -0.0000
vn -0.0000 0.7071 -0.7071
vn -0.0000 -0.7028 0.7114
vn -0.0000 -0.4472 0.8944
vn -0.0000 -0.4472 -0.8944
vn -0.0000 0.0120 0.9999
vn -0.0000 0.7071 0.7071
vn -0.0000 -0.7028 -0.7114
vn -0.0000 0.0120 -0.9999
vt 0.199219 0.310671
vt 0.871519 0.974187
vt 0.880532 0.965174
vt 0.199219 0.341673
vt 0.195312 0.310671
vt 0.867786 0.970454
vt 0.191406 0.310671
vt 0.867786 0.965174
vt 0.876798 0.961441
vt 0.195312 0.341673
vt 0.871519 0.961441
vt 0.191406 0.341673
vt 0.203125 0.310671
vt 0.187500 0.310671
vt 0.876798 0.974187
vt 0.191406 0.310671
vt 0.880532 0.970454
vt 0.880532 0.970454
vt 0.203125 0.341673
vt 0.187500 0.341673
vt 0.876798 0.974187
vt 0.191406 0.341673
vt 0.187500 0.310671
vt 0.203125 0.310671
vt 0.871519 0.961441
vt 0.195312 0.310671
vt 0.880532 0.965174
vt 0.199219 0.310671
vt 0.876798 0.961441
vt 0.871519 0.974187
vt 0.195312 0.341673
vt 0.867786 0.965174
vt 0.187500 0.341673
vt 0.203125 0.341673
vt 0.867786 0.970454
vt 0.199219 0.341673
vt 0.184648 0.232742
vt 0.170494 0.233280
vt 0.182931 0.232742
vt 0.184648 0.227484
vt 0.186366 0.248515
vt 0.174212 0.229562
vt 0.186366 0.243257
vt 0.179470 0.229562
vt 0.182931 0.227484
vt 0.184648 0.248515
vt 0.184648 0.243257
vt 0.184648 0.237999
vt 0.170494 0.238538
vt 0.184648 0.243257
vt 0.174212 0.242256
vt 0.182931 0.237999
vt 0.182931 0.243257
vt 0.186366 0.237999
vt 0.183187 0.233280
vt 0.186366 0.227484
vt 0.184648 0.248515
vt 0.179470 0.242256
vt 0.186366 0.232742
vt 0.183187 0.238538
vt 0.184648 0.227484
vt 0.182931 0.248515
vt 0.184648 0.237999
vt 0.184648 0.232742
vt 0.474097 0.214465
vt 0.463758 0.217052
vt 0.471491 0.219754
vt 0.469773 0.219754
vt 0.474097 0.214465
vt 0.463758 0.214443
vt 0.474099 0.219754
vt 0.470742 0.219754
vt 0.474097 0.217026
vt 0.463758 0.217052
vt 0.471491 0.219754
vt 0.471834 0.219754
vt 0.463758 0.214443
vt 0.474097 0.217026
vt 0.472803 0.219754
vt 0.474099 0.219754
vt 0.474656 0.214465
vt 0.469773 0.216772
vt 0.463199 0.216772
vt 0.469773 0.214723
vt 0.474656 0.214465
vt 0.463199 0.214723
vt 0.474656 0.217026
vt 0.471834 0.216772
vt 0.463199 0.216772
vt 0.471834 0.214723
vt 0.474656 0.217026
vt 0.463199 0.214723
vt 0.469773 0.216959
vt 0.466364 0.214465
vt 0.471491 0.216959
vt 0.470742 0.214443
vt 0.463756 0.214465
vt 0.474099 0.214443
vt 0.472803 0.214443
vt 0.474099 0.214443
vt 0.463756 0.217026
vt 0.471834 0.216959
vt 0.466364 0.217026
vt 0.471491 0.216959
vt 0.474097 0.217004
vt 0.463758 0.217052
vt 0.471491 0.219754
vt 0.471813 0.219754
vt 0.474097 0.217004
vt 0.463758 0.214443
vt 0.474099 0.219754
vt 0.472782 0.219754
vt 0.474097 0.214443
vt 0.463758 0.217052
vt 0.471491 0.219754
vt 0.469752 0.219754
vt 0.463758 0.214443
vt 0.474097 0.214443
vt 0.470721 0.219754
vt 0.474099 0.219754
vt 0.474656 0.217004
vt 0.471813 0.216772
vt 0.463199 0.216772
vt 0.471813 0.214723
vt 0.474656 0.217004
vt 0.463199 0.214723
vt 0.474656 0.214443
vt 0.469752 0.216772
vt 0.463199 0.216772
vt 0.469752 0.214723
vt 0.474656 0.214443
vt 0.463199 0.214723
vt 0.471813 0.216959
vt 0.466364 0.217004
vt 0.471491 0.216959
vt 0.472782 0.214443
vt 0.463756 0.217004
vt 0.474099 0.214443
vt 0.470721 0.214443
vt 0.474099 0.214443
vt 0.463756 0.214443
vt 0.469752 0.216959
vt 0.466364 0.214443
vt 0.471491 0.216959
vt 0.184648 0.232742
vt 0.170494 0.233280
vt 0.182931 0.232742
vt 0.184648 0.227484
vt 0.186366 0.248515
vt 0.174212 0.229562
vt 0.186366 0.243257
vt 0.179470 0.229562
vt 0.182931 0.227484
vt 0.184648 0.248515
vt 0.184648 0.243257
vt 0.184648 0.237999
vt 0.170494 0.238538
vt 0.184648 0.243257
vt 0.174212 0.242256
vt 0.182931 0.237999
vt 0.182931 0.243257
vt 0.186366 0.237999
vt 0.183187 0.233280
vt 0.186366 0.227484
vt 0.184648 0.248515
vt 0.179470 0.242256
vt 0.186366 0.232742
vt 0.183187 0.238538
vt 0.184648 0.227484
vt 0.182931 0.248515
vt 0.184648 0.237999
vt 0.184648 0.232742
s 1
usemtl electronics_etx_part_1
f 14/30/1 16/35/1 15/32/1 6/11/1 5/9/1 2/3/1 9/18/1 10/21/1
f 7/13/2 9/19/2 2/4/3 1/1/3
f 1/1/3 2/4/3 5/10/4 3/5/4
f 15/33/5 11/23/5 4/7/6 6/12/6
f 6/12/6 4/7/6 3/5/4 5/10/4
f 14/31/7 12/26/7 13/28/8 16/36/8
f 16/36/8 13/28/8 11/24/5 15/34/5
f 9/20/2 7/14/2 8/16/9 10/22/9
f 10/22/9 8/16/9 12/26/7 14/31/7
f 3/6/10 4/8/10 11/25/10 13/29/10 12/27/10 8/17/10 7/15/10 1/2/10
f 23/48/11 25/52/11 18/39/11 17/37/11
f 17/37/12 18/39/12 21/45/12 19/40/12
f 31/63/13 27/54/13 20/43/13 22/47/13
f 22/47/14 20/43/14 19/41/14 21/46/14
f 30/61/15 28/56/15 29/59/15 32/64/15
f 32/64/16 29/59/16 27/54/16 31/63/16
f 25/52/17 23/48/17 24/50/17 26/53/17
f 26/53/18 24/50/18 28/57/18 30/62/18
f 19/42/10 20/44/10 27/55/10 29/60/10 28/58/10 24/51/10 23/49/10 17/38/10
f 45/95/4 34/67/4 36/71/4 46/98/4
f 46/96/19 36/72/5 40/79/5 47/99/19
f 47/100/7 40/80/7 38/75/7 48/104/7
f 48/102/20 38/76/2 34/68/2 45/93/20
f 37/73/21 33/65/21 41/81/21 43/87/21
f 42/84/2 44/90/2 43/88/2 41/82/2
f 35/69/22 39/78/22 44/91/22 42/85/22
f 33/66/4 35/70/4 42/86/4 41/83/4
f 39/77/7 37/74/7 43/89/7 44/92/7
f 37/73/23 48/103/20 45/94/20 33/65/23
f 39/77/7 47/100/7 48/104/7 37/74/7
f 35/69/10 46/97/19 47/101/19 39/78/10
f 33/66/4 45/95/4 46/98/4 35/70/4
f 61/135/7 50/107/7 52/111/7 62/138/7
f 62/136/24 52/112/5 56/119/5 63/139/24
f 63/140/4 56/120/4 54/115/4 64/144/4
f 64/142/25 54/116/2 50/108/2 61/133/25
f 53/113/22 49/105/22 57/121/22 59/127/22
f 58/124/2 60/130/2 59/128/2 57/122/2
f 51/109/21 55/118/21 60/131/21 58/125/21
f 49/106/7 51/110/7 58/126/7 57/123/7
f 55/117/4 53/114/4 59/129/4 60/132/4
f 53/113/26 64/143/25 61/134/25 49/105/26
f 55/117/4 63/140/4 64/144/4 53/114/4
f 51/109/1 62/137/24 63/141/24 55/118/1
f 49/106/7 61/135/7 62/138/7 51/110/7
f 71/156/17 73/160/17 66/147/17 65/145/17
f 65/145/18 66/147/18 69/153/18 67/148/18
f 79/171/16 75/162/16 68/151/16 70/155/16
f 70/155/15 68/151/15 67/149/15 69/154/15
f 78/169/14 76/164/14 77/167/14 80/172/14
f 80/172/13 77/167/13 75/162/13 79/171/13
f 73/160/11 71/156/11 72/158/11 74/161/11
f 74/161/12 72/158/12 76/165/12 78/170/12
f 67/150/1 68/152/1 75/163/1 77/168/1 76/166/1 72/159/1 71/157/1 65/146/1
