# Blender 3.4.0
# www.blender.org
mtllib circuit_board_etx_1.mtl
o circuit_board_etx_1
v 0.082000 -0.000000 -0.086000
v -0.081000 -0.000000 -0.086000
v 0.082000 0.004000 -0.086000
v -0.081000 0.004000 -0.086000
v -0.122000 0.004000 -0.044000
v 0.116000 -0.000000 -0.044000
v -0.122000 -0.000000 -0.044000
v 0.116000 0.004000 -0.044000
v -0.081000 -0.000000 -0.055000
v 0.082000 0.004000 -0.055000
v -0.081000 0.004000 -0.055000
v 0.082000 -0.000000 -0.055000
v 0.116000 -0.000000 0.144000
v 0.096000 -0.000000 0.164000
v -0.102000 -0.000000 0.164000
v -0.122000 -0.000000 0.144000
v -0.122000 0.004000 0.144000
v -0.102000 0.004000 0.164000
v 0.096000 0.004000 0.164000
v 0.116000 0.004000 0.144000
vn -0.0000 -0.0000 -1.0000
vn -1.0000 -0.0000 -0.0000
vn -0.0000 -1.0000 -0.0000
vn -0.0000 -0.0000 1.0000
vn -0.0000 1.0000 -0.0000
vn 0.3078 -0.0000 -0.9514
vn 1.0000 -0.0000 -0.0000
vn -0.2591 -0.0000 -0.9658
vn -0.7071 -0.0000 0.7071
vn 0.7071 -0.0000 0.7071
vt 0.539062 0.373047
vt 0.400391 0.373047
vt 0.361328 0.349609
vt 0.539062 0.466682
vt 0.400391 0.466682
vt 0.361328 0.349609
vt 0.541016 0.373047
vt 0.400391 0.373047
vt 0.361328 0.351562
vt 0.541016 0.466682
vt 0.361328 0.351562
vt 0.400391 0.466682
vt 0.392578 0.351562
vt 0.424016 0.490234
vt 0.365234 0.351562
vt 0.541016 0.349609
vt 0.392578 0.349609
vt 0.424016 0.353516
vt 0.392578 0.349609
vt 0.365234 0.349609
vt 0.424016 0.490234
vt 0.541016 0.351562
vt 0.392578 0.351562
vt 0.424016 0.353516
vt 0.384766 0.349609
vt 0.396484 0.349609
vt 0.417828 0.466682
vt 0.513672 0.351562
vt 0.384766 0.351562
vt 0.417828 0.373047
vt 0.384766 0.351562
vt 0.417828 0.466682
vt 0.396484 0.351562
vt 0.513672 0.349609
vt 0.384766 0.349609
vt 0.417828 0.373047
vt 0.529297 0.349609
vt 0.541016 0.349609
vt 0.529766 0.353516
vt 0.525391 0.349609
vt 0.541016 0.365005
vt 0.380859 0.349609
vt 0.541016 0.478745
vt 0.529297 0.349609
vt 0.365234 0.349609
vt 0.529766 0.490234
vt 0.529297 0.351562
vt 0.529766 0.490234
vt 0.365234 0.351562
vt 0.541016 0.478745
vt 0.380859 0.351562
vt 0.541016 0.365005
vt 0.525391 0.351562
vt 0.529766 0.353516
vt 0.529297 0.351562
vt 0.541016 0.351562
s 0
usemtl electronics_etx_part_1
f 1/1/1 2/4/1 4/10/1 3/7/1
f 17/47/2 5/13/2 7/19/2 16/44/2
f 12/36/3 9/27/3 2/5/3 1/2/3
f 19/53/4 18/51/4 15/42/4 14/40/4
f 11/31/2 4/11/2 2/6/2 9/25/2
f 10/30/5 3/8/5 4/12/5 11/32/5
f 19/52/5 20/54/5 8/24/5 5/14/5 17/48/5 18/50/5
f 10/28/6 8/22/6 6/16/6 12/34/6
f 8/23/7 20/55/7 13/37/7 6/17/7
f 3/9/7 10/29/7 12/35/7 1/3/7
f 8/24/5 10/30/5 11/32/5 5/14/5
f 5/15/8 11/33/8 9/26/8 7/20/8
f 6/18/3 7/21/3 9/27/3 12/36/3
f 17/49/9 16/45/9 15/42/9 18/51/9
f 13/38/10 20/56/10 19/53/10 14/40/10
f 13/39/3 14/41/3 15/43/3 16/46/3 7/21/3 6/18/3
