# Blender 3.4.0
# www.blender.org
mtllib data_block_etx_1.mtl
o data_block_etx_1
v -0.091000 0.003000 0.073000
v -0.097000 0.015000 -0.039000
v -0.091000 -0.003000 0.073000
v -0.097000 -0.015000 -0.039000
v 0.091000 0.003000 0.073000
v 0.097000 0.015000 -0.039000
v 0.091000 -0.003000 0.073000
v 0.097000 -0.015000 -0.039000
v -0.097000 0.015000 -0.015000
v -0.097000 -0.015000 -0.015000
v 0.097000 -0.015000 -0.015000
v 0.097000 0.015000 -0.015000
v -0.091000 -0.003000 -0.015000
v 0.091000 -0.003000 -0.015000
v 0.091000 0.003000 -0.015000
v -0.091000 0.003000 -0.015000
v 0.002000 0.003000 -0.004000
v 0.002000 0.009000 -0.015000
v 0.002000 0.003000 0.001000
v 0.002000 0.014000 -0.015000
v -0.002000 0.003000 -0.004000
v -0.002000 0.009000 -0.015000
v -0.002000 0.003000 0.001000
v -0.002000 0.014000 -0.015000
v 0.002000 0.009000 -0.004000
v 0.002000 0.014000 0.001000
v -0.002000 0.014000 0.001000
v -0.002000 0.009000 -0.004000
v 0.082000 0.003000 -0.004000
v 0.082000 0.009000 -0.015000
v 0.082000 0.003000 0.001000
v 0.082000 0.014000 -0.015000
v 0.078000 0.003000 -0.004000
v 0.078000 0.009000 -0.015000
v 0.078000 0.003000 0.001000
v 0.078000 0.014000 -0.015000
v 0.082000 0.009000 -0.004000
v 0.082000 0.014000 0.001000
v 0.078000 0.014000 0.001000
v 0.078000 0.009000 -0.004000
v -0.078000 0.003000 -0.004000
v -0.078000 0.009000 -0.015000
v -0.078000 0.003000 0.001000
v -0.078000 0.014000 -0.015000
v -0.082000 0.003000 -0.004000
v -0.082000 0.009000 -0.015000
v -0.082000 0.003000 0.001000
v -0.082000 0.014000 -0.015000
v -0.078000 0.009000 -0.004000
v -0.078000 0.014000 0.001000
v -0.082000 0.014000 0.001000
v -0.082000 0.009000 -0.004000
v -0.038000 0.003000 -0.004000
v -0.038000 0.009000 -0.015000
v -0.038000 0.003000 0.001000
v -0.038000 0.014000 -0.015000
v -0.042000 0.003000 -0.004000
v -0.042000 0.009000 -0.015000
v -0.042000 0.003000 0.001000
v -0.042000 0.014000 -0.015000
v -0.038000 0.009000 -0.004000
v -0.038000 0.014000 0.001000
v -0.042000 0.014000 0.001000
v -0.042000 0.009000 -0.004000
v 0.042000 0.003000 -0.004000
v 0.042000 0.009000 -0.015000
v 0.042000 0.003000 0.001000
v 0.042000 0.014000 -0.015000
v 0.038000 0.003000 -0.004000
v 0.038000 0.009000 -0.015000
v 0.038000 0.003000 0.001000
v 0.038000 0.014000 -0.015000
v 0.042000 0.009000 -0.004000
v 0.042000 0.014000 0.001000
v 0.038000 0.014000 0.001000
v 0.038000 0.009000 -0.004000
v -0.002000 -0.003000 -0.004000
v -0.002000 -0.009000 -0.015000
v -0.002000 -0.003000 0.001000
v -0.002000 -0.014000 -0.015000
v 0.002000 -0.003000 -0.004000
v 0.002000 -0.009000 -0.015000
v 0.002000 -0.003000 0.001000
v 0.002000 -0.014000 -0.015000
v -0.002000 -0.009000 -0.004000
v -0.002000 -0.014000 0.001000
v 0.002000 -0.014000 0.001000
v 0.002000 -0.009000 -0.004000
v -0.082000 -0.003000 -0.004000
v -0.082000 -0.009000 -0.015000
v -0.082000 -0.003000 0.001000
v -0.082000 -0.014000 -0.015000
v -0.078000 -0.003000 -0.004000
v -0.078000 -0.009000 -0.015000
v -0.078000 -0.003000 0.001000
v -0.078000 -0.014000 -0.015000
v -0.082000 -0.009000 -0.004000
v -0.082000 -0.014000 0.001000
v -0.078000 -0.014000 0.001000
v -0.078000 -0.009000 -0.004000
v 0.078000 -0.003000 -0.004000
v 0.078000 -0.009000 -0.015000
v 0.078000 -0.003000 0.001000
v 0.078000 -0.014000 -0.015000
v 0.082000 -0.003000 -0.004000
v 0.082000 -0.009000 -0.015000
v 0.082000 -0.003000 0.001000
v 0.082000 -0.014000 -0.015000
v 0.078000 -0.009000 -0.004000
v 0.078000 -0.014000 0.001000
v 0.082000 -0.014000 0.001000
v 0.082000 -0.009000 -0.004000
v 0.038000 -0.003000 -0.004000
v 0.038000 -0.009000 -0.015000
v 0.038000 -0.003000 0.001000
v 0.038000 -0.014000 -0.015000
v 0.042000 -0.003000 -0.004000
v 0.042000 -0.009000 -0.015000
v 0.042000 -0.003000 0.001000
v 0.042000 -0.014000 -0.015000
v 0.038000 -0.009000 -0.004000
v 0.038000 -0.014000 0.001000
v 0.042000 -0.014000 0.001000
v 0.042000 -0.009000 -0.004000
v -0.042000 -0.003000 -0.004000
v -0.042000 -0.009000 -0.015000
v -0.042000 -0.003000 0.001000
v -0.042000 -0.014000 -0.015000
v -0.038000 -0.003000 -0.004000
v -0.038000 -0.009000 -0.015000
v -0.038000 -0.003000 0.001000
v -0.038000 -0.014000 -0.015000
v -0.042000 -0.009000 -0.004000
v -0.042000 -0.014000 0.001000
v -0.038000 -0.014000 0.001000
v -0.038000 -0.009000 -0.004000
vn -1.0000 -0.0000 -0.0000
vn -0.0000 -1.0000 -0.0000
vn 1.0000 -0.0000 -0.0000
vn -0.0000 1.0000 -0.0000
vn -0.0000 -0.0000 1.0000
vn -0.0000 -0.0000 -1.0000
vt 0.472697 0.349609
vt 0.496094 0.453125
vt 0.472697 0.453125
vt 0.492188 0.496180
vt 0.470703 0.496180
vt 0.455078 0.507812
vt 0.472697 0.351562
vt 0.498047 0.453125
vt 0.472697 0.453125
vt 0.501953 0.496180
vt 0.470703 0.496180
vt 0.455078 0.517578
vt 0.533163 0.349609
vt 0.496094 0.453125
vt 0.533163 0.453125
vt 0.492188 0.496180
vt 0.535156 0.496180
vt 0.519531 0.507812
vt 0.533163 0.351562
vt 0.533163 0.453125
vt 0.498047 0.453125
vt 0.535156 0.496180
vt 0.501953 0.496180
vt 0.519531 0.517578
vt 0.492188 0.488170
vt 0.470703 0.488170
vt 0.884766 0.294922
vt 0.501953 0.488170
vt 0.470703 0.488170
vt 0.875000 0.294922
vt 0.535156 0.488170
vt 0.501953 0.488170
vt 0.875000 0.355469
vt 0.492188 0.488170
vt 0.535156 0.488170
vt 0.884766 0.355469
vt 0.878906 0.296875
vt 0.498047 0.482496
vt 0.472697 0.482496
vt 0.878906 0.353516
vt 0.533163 0.482496
vt 0.498047 0.482496
vt 0.880859 0.353516
vt 0.496094 0.482496
vt 0.533163 0.482496
vt 0.880859 0.296875
vt 0.496094 0.482496
vt 0.472697 0.482496
vt 0.467235 0.216577
vt 0.470621 0.216400
vt 0.472469 0.219754
vt 0.471469 0.219754
vt 0.467234 0.216577
vt 0.470621 0.214769
vt 0.474099 0.219754
vt 0.472438 0.219754
vt 0.467235 0.214870
vt 0.470621 0.216400
vt 0.472469 0.219754
vt 0.470095 0.219754
vt 0.470621 0.214769
vt 0.467234 0.214870
vt 0.471064 0.219754
vt 0.474099 0.219754
vt 0.471469 0.216338
vt 0.465494 0.216577
vt 0.472459 0.216329
vt 0.472438 0.214756
vt 0.463756 0.216577
vt 0.474088 0.214756
vt 0.471064 0.214756
vt 0.474088 0.214756
vt 0.463756 0.214870
vt 0.470095 0.216338
vt 0.465494 0.214870
vt 0.472459 0.216329
vt 0.467235 0.216577
vt 0.470621 0.216400
vt 0.472469 0.219754
vt 0.471469 0.219754
vt 0.467234 0.216577
vt 0.470621 0.214769
vt 0.474099 0.219754
vt 0.472438 0.219754
vt 0.467235 0.214870
vt 0.470621 0.216400
vt 0.472469 0.219754
vt 0.470095 0.219754
vt 0.470621 0.214769
vt 0.467234 0.214870
vt 0.471064 0.219754
vt 0.474099 0.219754
vt 0.471469 0.216338
vt 0.465494 0.216577
vt 0.472459 0.216329
vt 0.472438 0.214756
vt 0.463756 0.216577
vt 0.474088 0.214756
vt 0.471064 0.214756
vt 0.474088 0.214756
vt 0.463756 0.214870
vt 0.470095 0.216338
vt 0.465494 0.214870
vt 0.472459 0.216329
vt 0.467235 0.216577
vt 0.470621 0.216400
vt 0.472469 0.219754
vt 0.471469 0.219754
vt 0.467234 0.216577
vt 0.470621 0.214769
vt 0.474099 0.219754
vt 0.472438 0.219754
vt 0.467235 0.214870
vt 0.470621 0.216400
vt 0.472469 0.219754
vt 0.470095 0.219754
vt 0.470621 0.214769
vt 0.467234 0.214870
vt 0.471064 0.219754
vt 0.474099 0.219754
vt 0.471469 0.216338
vt 0.465494 0.216577
vt 0.472459 0.216329
vt 0.472438 0.214756
vt 0.463756 0.216577
vt 0.474088 0.214756
vt 0.471064 0.214756
vt 0.474088 0.214756
vt 0.463756 0.214870
vt 0.470095 0.216338
vt 0.465494 0.214870
vt 0.472459 0.216329
vt 0.467235 0.216577
vt 0.470621 0.216400
vt 0.472469 0.219754
vt 0.471469 0.219754
vt 0.467234 0.216577
vt 0.470621 0.214769
vt 0.474099 0.219754
vt 0.472438 0.219754
vt 0.467235 0.214870
vt 0.470621 0.216400
vt 0.472469 0.219754
vt 0.470095 0.219754
vt 0.470621 0.214769
vt 0.467234 0.214870
vt 0.471064 0.219754
vt 0.474099 0.219754
vt 0.471469 0.216338
vt 0.465494 0.216577
vt 0.472459 0.216329
vt 0.472438 0.214756
vt 0.463756 0.216577
vt 0.474088 0.214756
vt 0.471064 0.214756
vt 0.474088 0.214756
vt 0.463756 0.214870
vt 0.470095 0.216338
vt 0.465494 0.214870
vt 0.472459 0.216329
vt 0.467235 0.216577
vt 0.470621 0.216400
vt 0.472469 0.219754
vt 0.471469 0.219754
vt 0.467234 0.216577
vt 0.470621 0.214769
vt 0.474099 0.219754
vt 0.472438 0.219754
vt 0.467235 0.214870
vt 0.470621 0.216400
vt 0.472469 0.219754
vt 0.470095 0.219754
vt 0.470621 0.214769
vt 0.467234 0.214870
vt 0.471064 0.219754
vt 0.474099 0.219754
vt 0.471469 0.216338
vt 0.465494 0.216577
vt 0.472459 0.216329
vt 0.472438 0.214756
vt 0.463756 0.216577
vt 0.474088 0.214756
vt 0.471064 0.214756
vt 0.474088 0.214756
vt 0.463756 0.214870
vt 0.470095 0.216338
vt 0.465494 0.214870
vt 0.472459 0.216329
vt 0.467235 0.216577
vt 0.470621 0.216400
vt 0.472469 0.219754
vt 0.471469 0.219754
vt 0.467234 0.216577
vt 0.470621 0.214769
vt 0.474099 0.219754
vt 0.472438 0.219754
vt 0.467235 0.214870
vt 0.470621 0.216400
vt 0.472469 0.219754
vt 0.470095 0.219754
vt 0.470621 0.214769
vt 0.467234 0.214870
vt 0.471064 0.219754
vt 0.474099 0.219754
vt 0.471469 0.216338
vt 0.465494 0.216577
vt 0.472459 0.216329
vt 0.472438 0.214756
vt 0.463756 0.216577
vt 0.474088 0.214756
vt 0.471064 0.214756
vt 0.474088 0.214756
vt 0.463756 0.214870
vt 0.470095 0.216338
vt 0.465494 0.214870
vt 0.472459 0.216329
vt 0.467235 0.216577
vt 0.470621 0.216400
vt 0.472469 0.219754
vt 0.471469 0.219754
vt 0.467234 0.216577
vt 0.470621 0.214769
vt 0.474099 0.219754
vt 0.472438 0.219754
vt 0.467235 0.214870
vt 0.470621 0.216400
vt 0.472469 0.219754
vt 0.470095 0.219754
vt 0.470621 0.214769
vt 0.467234 0.214870
vt 0.471064 0.219754
vt 0.474099 0.219754
vt 0.471469 0.216338
vt 0.465494 0.216577
vt 0.472459 0.216329
vt 0.472438 0.214756
vt 0.463756 0.216577
vt 0.474088 0.214756
vt 0.471064 0.214756
vt 0.474088 0.214756
vt 0.463756 0.214870
vt 0.470095 0.216338
vt 0.465494 0.214870
vt 0.472459 0.216329
vt 0.467235 0.216577
vt 0.470621 0.216400
vt 0.472469 0.219754
vt 0.471469 0.219754
vt 0.467234 0.216577
vt 0.470621 0.214769
vt 0.474099 0.219754
vt 0.472438 0.219754
vt 0.467235 0.214870
vt 0.470621 0.216400
vt 0.472469 0.219754
vt 0.470095 0.219754
vt 0.470621 0.214769
vt 0.467234 0.214870
vt 0.471064 0.219754
vt 0.474099 0.219754
vt 0.471469 0.216338
vt 0.465494 0.216577
vt 0.472459 0.216329
vt 0.472438 0.214756
vt 0.463756 0.216577
vt 0.474088 0.214756
vt 0.471064 0.214756
vt 0.474088 0.214756
vt 0.463756 0.214870
vt 0.470095 0.216338
vt 0.465494 0.214870
vt 0.472459 0.216329
vt 0.467235 0.216577
vt 0.470621 0.216400
vt 0.472469 0.219754
vt 0.471469 0.219754
vt 0.467234 0.216577
vt 0.470621 0.214769
vt 0.474099 0.219754
vt 0.472438 0.219754
vt 0.467235 0.214870
vt 0.470621 0.216400
vt 0.472469 0.219754
vt 0.470095 0.219754
vt 0.470621 0.214769
vt 0.467234 0.214870
vt 0.471064 0.219754
vt 0.474099 0.219754
vt 0.471469 0.216338
vt 0.465494 0.216577
vt 0.472459 0.216329
vt 0.472438 0.214756
vt 0.463756 0.216577
vt 0.474088 0.214756
vt 0.471064 0.214756
vt 0.474088 0.214756
vt 0.463756 0.214870
vt 0.470095 0.216338
vt 0.465494 0.214870
vt 0.472459 0.216329
vt 0.467235 0.216577
vt 0.470621 0.216400
vt 0.472469 0.219754
vt 0.471469 0.219754
vt 0.467234 0.216577
vt 0.470621 0.214769
vt 0.474099 0.219754
vt 0.472438 0.219754
vt 0.467235 0.214870
vt 0.470621 0.216400
vt 0.472469 0.219754
vt 0.470095 0.219754
vt 0.470621 0.214769
vt 0.467234 0.214870
vt 0.471064 0.219754
vt 0.474099 0.219754
vt 0.471469 0.216338
vt 0.465494 0.216577
vt 0.472459 0.216329
vt 0.472438 0.214756
vt 0.463756 0.216577
vt 0.474088 0.214756
vt 0.471064 0.214756
vt 0.474088 0.214756
vt 0.463756 0.214870
vt 0.470095 0.216338
vt 0.465494 0.214870
vt 0.472459 0.216329
s 1
usemtl electronics_etx_part_1
f 9/25/1 2/4/1 4/10/1 10/28/1
f 10/29/2 4/11/2 8/22/2 11/31/2
f 11/32/3 8/23/3 6/16/3 12/34/3
f 12/35/4 6/17/4 2/5/4 9/26/4
f 3/7/5 7/19/5 5/13/5 1/1/5
f 8/24/6 4/12/6 2/6/6 6/18/6
f 15/43/5 12/36/5 9/27/5 16/46/5
f 14/40/5 11/33/5 12/36/5 15/43/5
f 13/37/5 10/30/5 11/33/5 14/40/5
f 16/46/5 9/27/5 10/30/5 13/37/5
f 1/2/1 16/47/1 13/38/1 3/8/1
f 3/9/2 13/39/2 14/41/2 7/20/2
f 7/21/3 14/42/3 15/44/3 5/14/3
f 5/15/4 15/45/4 16/48/4 1/3/4
f 25/67/3 18/51/3 20/55/3 26/70/3
f 26/68/4 20/56/4 24/63/4 27/71/4
f 27/72/1 24/64/1 22/59/1 28/76/1
f 28/74/2 22/60/2 18/52/2 25/65/2
f 21/57/6 28/75/6 25/66/6 17/49/6
f 23/61/1 27/72/1 28/76/1 21/58/1
f 19/53/5 26/69/5 27/73/5 23/62/5
f 17/50/3 25/67/3 26/70/3 19/54/3
f 37/95/3 30/79/3 32/83/3 38/98/3
f 38/96/4 32/84/4 36/91/4 39/99/4
f 39/100/1 36/92/1 34/87/1 40/104/1
f 40/102/2 34/88/2 30/80/2 37/93/2
f 33/85/6 40/103/6 37/94/6 29/77/6
f 35/89/1 39/100/1 40/104/1 33/86/1
f 31/81/5 38/97/5 39/101/5 35/90/5
f 29/78/3 37/95/3 38/98/3 31/82/3
f 49/123/3 42/107/3 44/111/3 50/126/3
f 50/124/4 44/112/4 48/119/4 51/127/4
f 51/128/1 48/120/1 46/115/1 52/132/1
f 52/130/2 46/116/2 42/108/2 49/121/2
f 45/113/6 52/131/6 49/122/6 41/105/6
f 47/117/1 51/128/1 52/132/1 45/114/1
f 43/109/5 50/125/5 51/129/5 47/118/5
f 41/106/3 49/123/3 50/126/3 43/110/3
f 61/151/3 54/135/3 56/139/3 62/154/3
f 62/152/4 56/140/4 60/147/4 63/155/4
f 63/156/1 60/148/1 58/143/1 64/160/1
f 64/158/2 58/144/2 54/136/2 61/149/2
f 57/141/6 64/159/6 61/150/6 53/133/6
f 59/145/1 63/156/1 64/160/1 57/142/1
f 55/137/5 62/153/5 63/157/5 59/146/5
f 53/134/3 61/151/3 62/154/3 55/138/3
f 73/179/3 66/163/3 68/167/3 74/182/3
f 74/180/4 68/168/4 72/175/4 75/183/4
f 75/184/1 72/176/1 70/171/1 76/188/1
f 76/186/2 70/172/2 66/164/2 73/177/2
f 69/169/6 76/187/6 73/178/6 65/161/6
f 71/173/1 75/184/1 76/188/1 69/170/1
f 67/165/5 74/181/5 75/185/5 71/174/5
f 65/162/3 73/179/3 74/182/3 67/166/3
f 85/207/1 78/191/1 80/195/1 86/210/1
f 86/208/2 80/196/2 84/203/2 87/211/2
f 87/212/3 84/204/3 82/199/3 88/216/3
f 88/214/4 82/200/4 78/192/4 85/205/4
f 81/197/6 88/215/6 85/206/6 77/189/6
f 83/201/3 87/212/3 88/216/3 81/198/3
f 79/193/5 86/209/5 87/213/5 83/202/5
f 77/190/1 85/207/1 86/210/1 79/194/1
f 97/235/1 90/219/1 92/223/1 98/238/1
f 98/236/2 92/224/2 96/231/2 99/239/2
f 99/240/3 96/232/3 94/227/3 100/244/3
f 100/242/4 94/228/4 90/220/4 97/233/4
f 93/225/6 100/243/6 97/234/6 89/217/6
f 95/229/3 99/240/3 100/244/3 93/226/3
f 91/221/5 98/237/5 99/241/5 95/230/5
f 89/218/1 97/235/1 98/238/1 91/222/1
f 109/263/1 102/247/1 104/251/1 110/266/1
f 110/264/2 104/252/2 108/259/2 111/267/2
f 111/268/3 108/260/3 106/255/3 112/272/3
f 112/270/4 106/256/4 102/248/4 109/261/4
f 105/253/6 112/271/6 109/262/6 101/245/6
f 107/257/3 111/268/3 112/272/3 105/254/3
f 103/249/5 110/265/5 111/269/5 107/258/5
f 101/246/1 109/263/1 110/266/1 103/250/1
f 121/291/1 114/275/1 116/279/1 122/294/1
f 122/292/2 116/280/2 120/287/2 123/295/2
f 123/296/3 120/288/3 118/283/3 124/300/3
f 124/298/4 118/284/4 114/276/4 121/289/4
f 117/281/6 124/299/6 121/290/6 113/273/6
f 119/285/3 123/296/3 124/300/3 117/282/3
f 115/277/5 122/293/5 123/297/5 119/286/5
f 113/274/1 121/291/1 122/294/1 115/278/1
f 133/319/1 126/303/1 128/307/1 134/322/1
f 134/320/2 128/308/2 132/315/2 135/323/2
f 135/324/3 132/316/3 130/311/3 136/328/3
f 136/326/4 130/312/4 126/304/4 133/317/4
f 129/309/6 136/327/6 133/318/6 125/301/6
f 131/313/3 135/324/3 136/328/3 129/310/3
f 127/305/5 134/321/5 135/325/5 131/314/5
f 125/302/1 133/319/1 134/322/1 127/306/1
